<?xml version="1.0" encoding="UTF-8"?>
<svg id="Layer_2" data-name="Layer 2" xmlns="http://www.w3.org/2000/svg" viewBox="0 0 396.93 362.65">
  <defs>
    <style>
      .cls-1 {
        fill: #0190ff;
      }

      .cls-1, .cls-2 {
        stroke-width: 0px;
      }

      .cls-2 {
        fill: #6a6c76;
      }
    </style>
  </defs>
  <g id="Layer_1-2" data-name="Layer 1">
    <g>
      <path class="cls-2" d="M173.34,0C77.78,0,0,77.78,0,173.39s77.78,173.34,173.34,173.34c19.54,0,38.34-3.26,55.88-9.22l-51.07-51.02c-1.6.05-3.21.1-4.81.1-62.44,0-113.21-50.76-113.21-113.21s50.76-113.26,113.21-113.26,113.26,50.81,113.26,113.26c0,1.55-.05,3.11-.1,4.66l51.07,51.07c5.91-17.49,9.17-36.23,9.17-55.73C346.73,77.78,268.96,0,173.34,0"/>
      <polygon class="cls-1" points="396.93 312.18 349 362.65 278.05 292.33 245.33 326.15 196.37 276.81 196.57 276.61 275.42 194.18 396.93 312.18"/>
    </g>
  </g>
</svg>